<svg width="256" height="256" viewBox="0 0 1024 1024" fill="none"
    xmlns="http://www.w3.org/2000/svg">
    <g clip-path="url(#clip0_3_49)">
        <path d="M485.374 -0.00195312H0.0209961V485.351H485.374V-0.00195312Z" fill="#0078D4"/>
        <path d="M1023.98 -0.00231934H538.626V485.351H1023.98V-0.00231934Z" fill="#0078D4"/>
        <path d="M485.374 538.647H0.0209961V1024H485.374V538.647Z" fill="#0078D4"/>
        <path d="M1023.98 538.647H538.626V1024H1023.98V538.647Z" fill="#0078D4"/>
        <path d="M716.746 830.527V781.011L681.09 816.705C684.932 819.378 688.552 821.575 691.958 823.362C695.364 825.151 698.552 826.534 701.522 827.585C704.492 828.639 707.248 829.359 709.782 829.826C712.32 830.29 714.64 830.498 716.746 830.527ZM899.034 826.411C899.097 826.464 899.445 826.758 900.085 827.165C900.729 827.576 901.67 828.103 902.92 828.623C904.167 829.141 905.726 829.656 907.607 830.038C909.488 830.423 911.692 830.675 914.229 830.675C916.347 830.675 918.683 830.489 921.243 830.044C923.806 829.596 926.587 828.885 929.592 827.838C932.6 826.786 935.829 825.398 939.282 823.595C942.735 821.79 946.413 819.568 950.314 816.853L923.257 790.348L833.582 700.339L794.233 739.697L741.154 684.96L607.939 816.67C611.837 819.385 615.508 821.607 618.958 823.412C622.408 825.215 625.634 826.603 628.639 827.654C631.641 828.702 634.422 829.413 636.982 829.858C639.539 830.306 641.874 830.492 643.989 830.492C646.527 830.492 648.73 830.24 650.608 829.855C652.489 829.473 654.046 828.958 655.296 828.437C656.546 827.92 657.483 827.392 658.127 826.982C658.771 826.572 659.118 826.278 659.181 826.225L719.318 766.088L740.823 745.467L800.373 805.016L821.177 826.411C821.24 826.464 821.587 826.758 822.231 827.165C822.875 827.576 823.813 828.103 825.063 828.623C826.313 829.141 827.872 829.656 829.75 830.038C831.631 830.423 833.838 830.675 836.375 830.675C838.49 830.675 840.829 830.489 843.389 830.044C845.949 829.596 848.733 828.885 851.738 827.838C854.743 826.786 857.972 825.398 861.425 823.595C864.878 821.79 868.555 819.568 872.457 816.853L824.671 770.059L833.566 761.164L874.919 802.516L899.034 826.411ZM898.52 577L1016 780.535L898.52 984.07H663.48L546 780.535L663.48 577H898.52Z" fill="white"/>
        <path d="M465.207 293.338C464.766 293.338 464.766 293.338 465.207 293.338H464.766C464.326 293.338 463.885 293.339 463.885 292.898C463.004 292.898 462.122 292.457 461.238 292.457C458.151 292.016 455.504 291.576 452.857 291.576C451.533 291.576 450.21 291.576 448.445 291.132H448.004C438.742 290.251 431.243 289.37 424.184 287.164C421.096 285.839 420.215 284.076 419.331 282.311C419.331 281.87 418.89 281.87 418.89 281.429L413.156 279.667C415.865 258.916 414.819 237.847 410.069 217.467C405.252 196.917 396.893 177.363 385.366 159.682L389.779 155.713V154.832C389.779 152.626 390.219 150.419 391.982 148.213C397.276 143.361 403.894 139.392 411.834 134.539C413.156 133.658 414.478 133.217 415.803 132.333C418.449 131.011 420.656 129.689 423.302 127.923C423.743 127.483 424.624 127.042 425.508 126.161C425.949 125.717 426.39 125.717 426.39 125.277C432.565 119.983 433.889 111.162 429.477 105.425C427.271 102.337 423.302 100.575 419.331 100.575C415.805 100.575 412.715 101.897 409.628 104.103L408.747 104.984C407.865 105.425 407.422 106.309 406.54 106.749C404.334 108.956 402.569 110.718 400.806 112.924C399.925 113.806 399.044 115.13 397.719 116.012C391.541 122.63 385.807 127.923 380.073 131.892C378.751 132.774 377.429 133.217 376.104 133.217C375.223 133.217 374.339 133.217 373.457 132.774H372.576L367.28 136.304C361.546 130.13 355.371 124.836 349.196 119.543C322.607 98.7588 290.607 86.0503 257.003 82.9287L256.563 77.1946L255.681 76.3132C254.357 74.9885 252.594 73.6665 252.15 70.579C251.71 63.5201 252.594 55.5799 253.475 46.7583V46.3176C253.475 44.9929 253.916 43.2302 254.357 41.9055C254.797 39.2614 255.238 36.612 255.681 33.5246V29.5558C255.681 21.6155 249.504 15 242.007 15C238.476 15 234.948 16.7627 232.301 19.4095C229.657 22.0562 228.332 25.5843 228.332 29.5558V33.0839C228.332 36.1713 228.773 38.8181 229.654 41.4648C230.095 42.7895 230.095 44.1116 230.536 45.8769V46.3176C231.417 55.1392 232.742 63.0795 231.861 70.1384C231.42 73.2258 229.654 74.5478 228.332 75.8725L227.451 76.7539L227.008 82.4881C219.067 83.3694 211.127 84.2508 203.187 86.0162C169.223 93.5157 139.227 110.721 115.85 135.42L111.438 132.333H110.556C109.675 132.333 108.791 132.774 107.909 132.774C106.585 132.774 105.263 132.333 103.938 131.452C98.2038 127.483 92.4696 121.746 86.2947 115.13C85.4134 114.249 84.532 112.924 83.2073 112.043C81.4419 109.837 79.6765 108.072 77.4705 105.868C77.0298 105.425 76.1484 104.987 75.2671 104.103C74.8264 103.662 74.3857 103.662 74.3857 103.221C71.6527 100.963 68.225 99.7165 64.6801 99.6906C60.7086 99.6906 56.7398 101.456 54.5338 104.543C50.1216 110.278 51.4463 119.099 57.6212 124.393C58.0619 124.393 58.0619 124.836 58.5026 124.836C59.3839 125.277 59.8273 126.158 60.7086 126.599C63.3554 128.361 65.5614 129.686 68.2082 131.011C69.5329 131.452 70.8549 132.333 72.1796 133.217C80.1172 138.067 86.7354 142.039 92.0289 146.891C94.235 149.095 94.235 151.301 94.235 153.507V154.388L98.6444 158.36C97.7631 159.682 96.8817 160.566 96.4384 161.888C74.383 196.736 66.0021 237.759 71.7363 278.342L66.0021 280.105C66.0021 280.548 65.5614 280.548 65.5614 280.986C64.6801 282.751 63.3554 284.517 60.7086 285.839C54.0931 288.045 46.1528 288.929 36.8906 289.81H36.4472C35.1252 289.81 33.3598 289.81 32.0377 290.251C29.391 290.251 26.7443 290.692 23.6568 291.132C22.7755 291.132 21.8941 291.576 21.0101 291.576C20.5694 291.576 20.1287 291.576 19.6854 292.016C11.7451 293.779 6.89232 301.279 8.21702 308.335C9.54173 314.512 15.2759 318.484 22.3321 318.484C23.6568 318.484 24.5382 318.484 25.8629 318.041C26.3036 318.041 26.7443 318.041 26.7443 317.6C27.6256 317.6 28.507 317.159 29.3883 317.159C32.4784 316.278 34.6845 315.397 37.3312 314.072C38.6533 313.631 39.9753 312.747 41.3 312.309H41.7407C50.1216 309.219 57.6212 306.572 64.6801 305.691H65.5614C68.2082 305.691 69.9736 307.013 71.2956 307.897C71.7363 307.897 71.7363 308.338 72.177 308.338L78.3545 307.456C88.9415 340.096 109.231 369.21 136.14 390.384C142.314 395.234 148.489 399.206 155.107 403.177L152.461 408.909C152.461 409.352 152.901 409.352 152.901 409.79C153.783 411.555 154.664 413.762 153.783 416.849C151.139 423.467 147.167 430.083 142.314 437.582V438.023C141.433 439.348 140.552 440.229 139.67 441.551C137.905 443.757 136.58 445.963 134.815 448.61C134.374 449.051 133.934 449.932 133.493 450.816C133.493 451.257 133.052 451.697 133.052 451.697C129.524 459.197 132.171 467.578 138.786 470.665C140.549 471.547 142.314 471.99 144.08 471.99C149.373 471.99 154.667 468.459 157.314 463.606C157.314 463.166 157.754 462.725 157.754 462.725C158.195 461.844 158.636 460.962 159.076 460.519C160.401 457.432 160.842 455.225 161.723 452.579L163.048 448.61C166.135 439.788 168.341 432.729 172.31 426.555C174.073 423.908 176.281 423.467 178.044 422.583C178.485 422.583 178.485 422.583 178.926 422.142L182.016 416.408C201.424 423.908 222.598 427.877 243.77 427.877C256.563 427.877 269.796 426.555 282.149 423.467C289.922 421.729 297.581 419.519 305.085 416.849L307.729 421.702C308.173 421.702 308.173 421.702 308.614 422.142C310.82 422.583 312.582 423.467 314.348 426.114C317.876 432.289 320.523 439.788 323.61 448.169V448.61L324.935 452.579C325.816 455.225 326.257 457.872 327.579 460.519C328.022 461.4 328.463 461.844 328.903 462.725C328.903 463.166 329.347 463.606 329.347 463.606C331.991 468.9 337.284 471.99 342.578 471.99C344.343 471.99 346.109 471.547 347.871 470.665C350.959 468.903 353.606 466.253 354.49 462.725C355.371 459.197 355.371 455.225 353.608 451.697C353.608 451.257 353.165 451.257 353.165 450.816C352.724 449.935 352.283 449.053 351.843 448.61C350.518 445.963 348.755 443.757 346.99 441.551C346.109 440.229 345.227 439.348 344.346 438.026V437.582C339.49 430.083 335.078 423.467 332.875 416.849C331.994 413.762 332.875 411.999 333.316 409.793C333.316 409.352 333.756 409.352 333.756 408.911L331.55 403.618C354.93 389.943 374.78 370.532 389.779 346.714C397.719 334.362 403.894 320.687 408.303 307.013L413.597 307.894C414.04 307.894 414.04 307.454 414.478 307.454C416.243 306.572 417.568 305.25 420.215 305.25H421.096C428.155 306.132 435.652 308.776 444.036 311.866H444.476C445.798 312.306 447.12 313.188 448.445 313.628C451.092 314.953 453.298 315.835 456.385 316.719C457.267 316.719 458.148 317.159 459.032 317.159C459.473 317.159 459.913 317.159 460.354 317.6C461.679 318.041 462.56 318.041 463.885 318.041C470.5 318.041 476.235 313.631 478 307.897C478 302.603 473.147 295.545 465.207 293.341V293.338ZM260.972 271.724L241.563 280.989L222.155 271.724L217.305 250.993L230.536 234.231H252.15L265.384 250.993L260.975 271.724H260.972ZM376.104 225.85C379.526 240.437 380.569 255.48 379.192 270.399L311.701 250.993C305.526 249.23 301.998 243.053 303.32 236.878C303.761 235.113 304.645 233.347 305.967 232.025L359.342 183.943C366.839 196.296 372.573 210.411 376.104 225.848V225.85ZM338.168 157.478L280.383 198.502C275.531 201.589 268.912 200.705 264.943 195.855C263.621 194.53 263.181 192.765 262.737 191.002L258.769 119.099C288.81 122.558 316.795 136.086 338.168 157.478V157.478ZM210.246 121.303C215.099 120.421 219.508 119.54 224.361 118.658L220.392 189.234C219.951 195.409 215.099 200.702 208.48 200.702C206.718 200.702 204.512 200.262 203.187 199.38L144.521 157.478C162.607 139.392 185.103 127.039 210.246 121.305V121.303ZM123.347 183.94L175.838 230.698C180.691 234.669 181.132 242.166 177.163 247.019C175.838 248.782 174.075 250.107 171.869 250.55L103.497 270.399C100.851 240.404 107.466 209.967 123.347 183.94V183.94ZM111.435 303.482L181.575 291.57C187.309 291.13 192.603 295.101 193.925 300.835C194.365 303.479 194.365 305.688 193.484 307.894L166.576 372.736C141.874 356.855 122.024 332.594 111.438 303.482H111.435ZM272.443 391.263C262.297 393.469 252.15 394.791 241.563 394.791C226.126 394.791 211.127 392.147 197.015 387.735L231.861 324.656C235.389 320.685 241.123 318.922 245.976 321.569C248.035 322.83 249.833 324.477 251.269 326.419L285.233 387.735C281.265 389.057 276.853 389.941 272.44 391.263H272.443ZM358.458 329.95C347.431 347.593 332.872 361.708 316.113 372.736L288.324 306.126C286.999 300.835 289.205 295.101 294.498 292.452C296.261 291.57 298.467 291.13 300.673 291.13L371.251 303.041C368.605 312.744 364.193 321.569 358.458 329.95V329.95Z" fill="white"/>
    </g>
    <defs>
        <clipPath id="clip0_3_49">
            <rect width="1024" height="1024" fill="white"/>
        </clipPath>
    </defs>
</svg>
