<?xml version="1.0" standalone="no"?>
<!DOCTYPE svg PUBLIC "-//W3C//DTD SVG 20010904//EN"
 "http://www.w3.org/TR/2001/REC-SVG-20010904/DTD/svg10.dtd">
<svg version="1.0" xmlns="http://www.w3.org/2000/svg"
 width="700.000000pt" height="700.000000pt" viewBox="0 0 700.000000 700.000000"
 preserveAspectRatio="xMidYMid meet">
<metadata>
Created by potrace 1.14, written by Peter Selinger 2001-2017
</metadata>
<g transform="translate(0.000000,700.000000) scale(0.100000,-0.100000)"
fill="#000000" stroke="none">
<path d="M0 5341 l0 -1658 1658 1 1657 1 1 1658 1 1657 -1658 0 -1659 0 0
-1659z"/>
<path d="M3687 6993 c-3 -5 -4 -751 -4 -1659 l0 -1651 1656 1 1656 1 3 1658 2
1657 -1654 0 c-910 0 -1657 -3 -1659 -7z"/>
<path d="M0 1658 l0 -1658 1658 2 1657 3 1 1656 1 1656 -1658 0 -1659 0 0
-1659z"/>
<path d="M3683 1659 l0 -1659 1658 0 1659 0 0 1659 0 1658 -1658 0 -1659 0 0
-1658z"/>
</g>
</svg>
